<svg xmlns="http://www.w3.org/2000/svg" width="1600" height="900" viewBox="0 0 1600 900">
  <defs>
    <linearGradient id="g" x1="0" y1="0" x2="1" y2="1">
      <stop offset="0" stop-color="#0A0D14"/>
      <stop offset="1" stop-color="#1a0a2e"/>
    </linearGradient>
  </defs>
  <rect width="1600" height="900" fill="url(#g)"/>
  <circle cx="589" cy="200" r="3.4" fill="#00F0FF" opacity="0.5"/>
  <circle cx="23" cy="176" r="3.8" fill="#00F0FF" opacity="0.5"/>
  <circle cx="850" cy="670" r="1.3" fill="#00F0FF" opacity="0.5"/>
  <circle cx="831" cy="186" r="4.8" fill="#00F0FF" opacity="0.5"/>
  <circle cx="1311" cy="677" r="4.3" fill="#00F0FF" opacity="0.5"/>
  <circle cx="1445" cy="508" r="2.5" fill="#7000FF" opacity="0.5"/>
  <circle cx="672" cy="269" r="4.8" fill="#00F0FF" opacity="0.5"/>
  <circle cx="139" cy="349" r="3.1" fill="#7000FF" opacity="0.5"/>
  <circle cx="627" cy="673" r="3.1" fill="#7000FF" opacity="0.5"/>
  <circle cx="1427" cy="565" r="1.6" fill="#00F0FF" opacity="0.5"/>
  <circle cx="987" cy="643" r="3.9" fill="#7000FF" opacity="0.5"/>
  <circle cx="1135" cy="97" r="3.4" fill="#00F0FF" opacity="0.5"/>
  <circle cx="362" cy="149" r="3.0" fill="#7000FF" opacity="0.5"/>
  <circle cx="1355" cy="480" r="4.0" fill="#00F0FF" opacity="0.5"/>
  <circle cx="1533" cy="261" r="3.3" fill="#7000FF" opacity="0.5"/>
  <circle cx="613" cy="665" r="4.0" fill="#00F0FF" opacity="0.5"/>
  <circle cx="980" cy="647" r="4.6" fill="#00F0FF" opacity="0.5"/>
  <circle cx="1287" cy="782" r="3.3" fill="#00F0FF" opacity="0.5"/>
  <circle cx="640" cy="358" r="1.2" fill="#00F0FF" opacity="0.5"/>
  <circle cx="1200" cy="887" r="3.1" fill="#00F0FF" opacity="0.5"/>
  <circle cx="1283" cy="276" r="3.8" fill="#00F0FF" opacity="0.5"/>
  <circle cx="23" cy="280" r="2.0" fill="#7000FF" opacity="0.5"/>
  <circle cx="1205" cy="148" r="4.4" fill="#00F0FF" opacity="0.5"/>
  <circle cx="837" cy="393" r="2.1" fill="#7000FF" opacity="0.5"/>
  <circle cx="887" cy="136" r="2.8" fill="#7000FF" opacity="0.5"/>
  <circle cx="935" cy="98" r="4.4" fill="#7000FF" opacity="0.5"/>
  <circle cx="695" cy="261" r="4.8" fill="#00F0FF" opacity="0.5"/>
  <circle cx="1411" cy="168" r="4.2" fill="#7000FF" opacity="0.5"/>
  <circle cx="1105" cy="265" r="4.9" fill="#00F0FF" opacity="0.5"/>
  <circle cx="584" cy="213" r="4.4" fill="#00F0FF" opacity="0.5"/>
  <circle cx="317" cy="728" r="3.8" fill="#7000FF" opacity="0.5"/>
  <circle cx="936" cy="712" r="4.8" fill="#00F0FF" opacity="0.5"/>
  <circle cx="981" cy="625" r="4.8" fill="#00F0FF" opacity="0.5"/>
  <circle cx="251" cy="174" r="2.8" fill="#7000FF" opacity="0.5"/>
  <circle cx="200" cy="401" r="3.0" fill="#00F0FF" opacity="0.5"/>
  <circle cx="41" cy="739" r="4.5" fill="#7000FF" opacity="0.5"/>
  <circle cx="543" cy="833" r="1.3" fill="#7000FF" opacity="0.5"/>
  <circle cx="11" cy="395" r="1.3" fill="#00F0FF" opacity="0.5"/>
  <circle cx="1281" cy="871" r="2.2" fill="#7000FF" opacity="0.5"/>
  <circle cx="1252" cy="72" r="3.1" fill="#00F0FF" opacity="0.5"/>
  <text x="80" y="430" font-family="sans-serif" font-size="64" font-weight="700" fill="#00F0FF">Google DeepMind</text>
  <text x="80" y="500" font-family="monospace" font-size="24" fill="#8B93A7">Google DeepMind: AlphaFold 4 And Protein Engineering Breakt…</text>
  <text x="80" y="840" font-family="monospace" font-size="18" fill="#8B93A7">Kifayat AI Matrix · #aaab2355</text>
</svg>