<svg xmlns="http://www.w3.org/2000/svg" width="1600" height="900" viewBox="0 0 1600 900">
  <defs>
    <linearGradient id="g" x1="0" y1="0" x2="1" y2="1">
      <stop offset="0" stop-color="#0A0D14"/>
      <stop offset="1" stop-color="#1a0a2e"/>
    </linearGradient>
  </defs>
  <rect width="1600" height="900" fill="url(#g)"/>
  <circle cx="1284" cy="403" r="1.9" fill="#00F0FF" opacity="0.5"/>
  <circle cx="3" cy="805" r="3.2" fill="#7000FF" opacity="0.5"/>
  <circle cx="824" cy="397" r="3.7" fill="#00F0FF" opacity="0.5"/>
  <circle cx="1093" cy="170" r="4.7" fill="#7000FF" opacity="0.5"/>
  <circle cx="917" cy="763" r="2.3" fill="#00F0FF" opacity="0.5"/>
  <circle cx="19" cy="789" r="4.3" fill="#00F0FF" opacity="0.5"/>
  <circle cx="1403" cy="622" r="2.8" fill="#00F0FF" opacity="0.5"/>
  <circle cx="259" cy="268" r="4.9" fill="#00F0FF" opacity="0.5"/>
  <circle cx="1463" cy="601" r="2.9" fill="#00F0FF" opacity="0.5"/>
  <circle cx="1228" cy="353" r="3.7" fill="#7000FF" opacity="0.5"/>
  <circle cx="604" cy="767" r="4.2" fill="#7000FF" opacity="0.5"/>
  <circle cx="1379" cy="253" r="4.6" fill="#7000FF" opacity="0.5"/>
  <circle cx="424" cy="151" r="2.9" fill="#00F0FF" opacity="0.5"/>
  <circle cx="173" cy="170" r="2.4" fill="#7000FF" opacity="0.5"/>
  <circle cx="415" cy="362" r="3.5" fill="#7000FF" opacity="0.5"/>
  <circle cx="1029" cy="728" r="4.1" fill="#00F0FF" opacity="0.5"/>
  <circle cx="1184" cy="412" r="1.6" fill="#00F0FF" opacity="0.5"/>
  <circle cx="60" cy="711" r="2.9" fill="#00F0FF" opacity="0.5"/>
  <circle cx="631" cy="762" r="4.4" fill="#7000FF" opacity="0.5"/>
  <circle cx="973" cy="463" r="4.4" fill="#7000FF" opacity="0.5"/>
  <circle cx="1442" cy="207" r="2.5" fill="#00F0FF" opacity="0.5"/>
  <circle cx="920" cy="797" r="1.8" fill="#7000FF" opacity="0.5"/>
  <circle cx="385" cy="132" r="3.6" fill="#00F0FF" opacity="0.5"/>
  <circle cx="372" cy="390" r="3.9" fill="#00F0FF" opacity="0.5"/>
  <circle cx="1573" cy="844" r="2.9" fill="#00F0FF" opacity="0.5"/>
  <circle cx="1048" cy="615" r="2.5" fill="#7000FF" opacity="0.5"/>
  <circle cx="42" cy="689" r="4.9" fill="#7000FF" opacity="0.5"/>
  <circle cx="1013" cy="295" r="3.3" fill="#00F0FF" opacity="0.5"/>
  <circle cx="1086" cy="300" r="2.0" fill="#00F0FF" opacity="0.5"/>
  <circle cx="1505" cy="353" r="1.5" fill="#00F0FF" opacity="0.5"/>
  <circle cx="15" cy="314" r="2.9" fill="#7000FF" opacity="0.5"/>
  <circle cx="1265" cy="253" r="3.7" fill="#7000FF" opacity="0.5"/>
  <circle cx="406" cy="349" r="1.8" fill="#7000FF" opacity="0.5"/>
  <circle cx="242" cy="511" r="2.2" fill="#7000FF" opacity="0.5"/>
  <circle cx="1480" cy="386" r="4.8" fill="#00F0FF" opacity="0.5"/>
  <circle cx="895" cy="320" r="3.6" fill="#7000FF" opacity="0.5"/>
  <circle cx="986" cy="444" r="1.6" fill="#7000FF" opacity="0.5"/>
  <circle cx="87" cy="323" r="2.6" fill="#7000FF" opacity="0.5"/>
  <circle cx="277" cy="179" r="2.9" fill="#7000FF" opacity="0.5"/>
  <circle cx="823" cy="760" r="2.2" fill="#7000FF" opacity="0.5"/>
  <text x="80" y="430" font-family="sans-serif" font-size="64" font-weight="700" fill="#00F0FF">Hugging Face</text>
  <text x="80" y="500" font-family="monospace" font-size="24" fill="#8B93A7">Hugging Face: Open-source Models Closing The Gap With Close…</text>
  <text x="80" y="840" font-family="monospace" font-size="18" fill="#8B93A7">Kifayat AI Matrix · #1614d54e</text>
</svg>