<svg xmlns="http://www.w3.org/2000/svg" width="1600" height="900" viewBox="0 0 1600 900">
  <defs>
    <linearGradient id="g" x1="0" y1="0" x2="1" y2="1">
      <stop offset="0" stop-color="#0A0D14"/>
      <stop offset="1" stop-color="#1a0a2e"/>
    </linearGradient>
  </defs>
  <rect width="1600" height="900" fill="url(#g)"/>
  <circle cx="1" cy="798" r="5.0" fill="#00F0FF" opacity="0.5"/>
  <circle cx="726" cy="103" r="2.4" fill="#7000FF" opacity="0.5"/>
  <circle cx="1137" cy="671" r="2.8" fill="#00F0FF" opacity="0.5"/>
  <circle cx="77" cy="540" r="2.3" fill="#00F0FF" opacity="0.5"/>
  <circle cx="958" cy="744" r="3.3" fill="#00F0FF" opacity="0.5"/>
  <circle cx="369" cy="198" r="2.5" fill="#00F0FF" opacity="0.5"/>
  <circle cx="261" cy="738" r="3.7" fill="#00F0FF" opacity="0.5"/>
  <circle cx="1272" cy="162" r="2.5" fill="#7000FF" opacity="0.5"/>
  <circle cx="460" cy="709" r="3.0" fill="#7000FF" opacity="0.5"/>
  <circle cx="1186" cy="259" r="3.1" fill="#00F0FF" opacity="0.5"/>
  <circle cx="176" cy="85" r="2.3" fill="#7000FF" opacity="0.5"/>
  <circle cx="27" cy="108" r="3.2" fill="#00F0FF" opacity="0.5"/>
  <circle cx="1577" cy="75" r="3.0" fill="#00F0FF" opacity="0.5"/>
  <circle cx="1323" cy="166" r="2.2" fill="#00F0FF" opacity="0.5"/>
  <circle cx="625" cy="96" r="1.0" fill="#00F0FF" opacity="0.5"/>
  <circle cx="972" cy="635" r="4.8" fill="#00F0FF" opacity="0.5"/>
  <circle cx="293" cy="681" r="4.8" fill="#7000FF" opacity="0.5"/>
  <circle cx="106" cy="232" r="2.9" fill="#00F0FF" opacity="0.5"/>
  <circle cx="154" cy="735" r="2.8" fill="#7000FF" opacity="0.5"/>
  <circle cx="669" cy="482" r="2.6" fill="#00F0FF" opacity="0.5"/>
  <circle cx="1225" cy="109" r="4.4" fill="#7000FF" opacity="0.5"/>
  <circle cx="364" cy="650" r="3.0" fill="#7000FF" opacity="0.5"/>
  <circle cx="156" cy="623" r="4.0" fill="#7000FF" opacity="0.5"/>
  <circle cx="1238" cy="691" r="1.4" fill="#7000FF" opacity="0.5"/>
  <circle cx="684" cy="414" r="2.5" fill="#00F0FF" opacity="0.5"/>
  <circle cx="1154" cy="530" r="1.4" fill="#00F0FF" opacity="0.5"/>
  <circle cx="1465" cy="41" r="2.0" fill="#7000FF" opacity="0.5"/>
  <circle cx="638" cy="463" r="2.3" fill="#7000FF" opacity="0.5"/>
  <circle cx="433" cy="670" r="4.1" fill="#00F0FF" opacity="0.5"/>
  <circle cx="664" cy="162" r="2.5" fill="#7000FF" opacity="0.5"/>
  <circle cx="613" cy="361" r="2.5" fill="#7000FF" opacity="0.5"/>
  <circle cx="381" cy="403" r="1.2" fill="#00F0FF" opacity="0.5"/>
  <circle cx="1234" cy="36" r="3.8" fill="#00F0FF" opacity="0.5"/>
  <circle cx="1210" cy="678" r="4.2" fill="#00F0FF" opacity="0.5"/>
  <circle cx="533" cy="894" r="3.2" fill="#7000FF" opacity="0.5"/>
  <circle cx="171" cy="61" r="1.6" fill="#7000FF" opacity="0.5"/>
  <circle cx="406" cy="665" r="4.6" fill="#7000FF" opacity="0.5"/>
  <circle cx="776" cy="335" r="3.8" fill="#7000FF" opacity="0.5"/>
  <circle cx="1068" cy="241" r="3.7" fill="#7000FF" opacity="0.5"/>
  <circle cx="1091" cy="328" r="2.7" fill="#00F0FF" opacity="0.5"/>
  <text x="80" y="430" font-family="sans-serif" font-size="64" font-weight="700" fill="#00F0FF">arXiv</text>
  <text x="80" y="500" font-family="monospace" font-size="24" fill="#8B93A7">arXiv: New Diffusion Transformer Architecture For Video Gen…</text>
  <text x="80" y="840" font-family="monospace" font-size="18" fill="#8B93A7">Kifayat AI Matrix · #812b4ac6</text>
</svg>