<svg xmlns="http://www.w3.org/2000/svg" width="1600" height="900" viewBox="0 0 1600 900">
  <defs>
    <linearGradient id="g" x1="0" y1="0" x2="1" y2="1">
      <stop offset="0" stop-color="#0A0D14"/>
      <stop offset="1" stop-color="#1a0a2e"/>
    </linearGradient>
  </defs>
  <rect width="1600" height="900" fill="url(#g)"/>
  <circle cx="700" cy="534" r="1.4" fill="#00F0FF" opacity="0.5"/>
  <circle cx="323" cy="530" r="4.7" fill="#00F0FF" opacity="0.5"/>
  <circle cx="1265" cy="31" r="2.1" fill="#00F0FF" opacity="0.5"/>
  <circle cx="648" cy="434" r="2.9" fill="#00F0FF" opacity="0.5"/>
  <circle cx="1400" cy="88" r="4.9" fill="#00F0FF" opacity="0.5"/>
  <circle cx="1123" cy="699" r="2.8" fill="#7000FF" opacity="0.5"/>
  <circle cx="1084" cy="112" r="3.9" fill="#7000FF" opacity="0.5"/>
  <circle cx="1461" cy="467" r="1.6" fill="#7000FF" opacity="0.5"/>
  <circle cx="1475" cy="582" r="2.6" fill="#00F0FF" opacity="0.5"/>
  <circle cx="891" cy="558" r="2.4" fill="#00F0FF" opacity="0.5"/>
  <circle cx="1106" cy="790" r="2.9" fill="#7000FF" opacity="0.5"/>
  <circle cx="193" cy="205" r="1.7" fill="#00F0FF" opacity="0.5"/>
  <circle cx="717" cy="493" r="4.7" fill="#7000FF" opacity="0.5"/>
  <circle cx="1169" cy="821" r="1.1" fill="#00F0FF" opacity="0.5"/>
  <circle cx="662" cy="106" r="3.3" fill="#00F0FF" opacity="0.5"/>
  <circle cx="242" cy="233" r="1.8" fill="#7000FF" opacity="0.5"/>
  <circle cx="337" cy="393" r="4.9" fill="#00F0FF" opacity="0.5"/>
  <circle cx="292" cy="804" r="2.0" fill="#00F0FF" opacity="0.5"/>
  <circle cx="1008" cy="687" r="2.5" fill="#7000FF" opacity="0.5"/>
  <circle cx="95" cy="767" r="3.1" fill="#7000FF" opacity="0.5"/>
  <circle cx="1007" cy="760" r="1.9" fill="#7000FF" opacity="0.5"/>
  <circle cx="63" cy="340" r="1.1" fill="#7000FF" opacity="0.5"/>
  <circle cx="1421" cy="743" r="4.7" fill="#7000FF" opacity="0.5"/>
  <circle cx="667" cy="293" r="4.3" fill="#00F0FF" opacity="0.5"/>
  <circle cx="1021" cy="840" r="1.5" fill="#7000FF" opacity="0.5"/>
  <circle cx="610" cy="145" r="3.6" fill="#7000FF" opacity="0.5"/>
  <circle cx="203" cy="355" r="2.7" fill="#00F0FF" opacity="0.5"/>
  <circle cx="38" cy="540" r="5.0" fill="#7000FF" opacity="0.5"/>
  <circle cx="1579" cy="302" r="1.4" fill="#00F0FF" opacity="0.5"/>
  <circle cx="365" cy="222" r="1.7" fill="#00F0FF" opacity="0.5"/>
  <circle cx="1499" cy="414" r="3.4" fill="#00F0FF" opacity="0.5"/>
  <circle cx="657" cy="164" r="4.9" fill="#7000FF" opacity="0.5"/>
  <circle cx="1336" cy="97" r="2.6" fill="#00F0FF" opacity="0.5"/>
  <circle cx="32" cy="876" r="3.5" fill="#7000FF" opacity="0.5"/>
  <circle cx="1106" cy="674" r="4.3" fill="#00F0FF" opacity="0.5"/>
  <circle cx="397" cy="596" r="1.3" fill="#00F0FF" opacity="0.5"/>
  <circle cx="223" cy="482" r="3.3" fill="#00F0FF" opacity="0.5"/>
  <circle cx="807" cy="633" r="2.2" fill="#00F0FF" opacity="0.5"/>
  <circle cx="629" cy="171" r="1.2" fill="#7000FF" opacity="0.5"/>
  <circle cx="144" cy="250" r="1.1" fill="#7000FF" opacity="0.5"/>
  <text x="80" y="430" font-family="sans-serif" font-size="64" font-weight="700" fill="#00F0FF">Google DeepMind</text>
  <text x="80" y="500" font-family="monospace" font-size="24" fill="#8B93A7">Google DeepMind: AlphaFold 4 And Protein Engineering Breakt…</text>
  <text x="80" y="840" font-family="monospace" font-size="18" fill="#8B93A7">Kifayat AI Matrix · #aaab2355</text>
</svg>