<svg xmlns="http://www.w3.org/2000/svg" width="1600" height="900" viewBox="0 0 1600 900">
  <defs>
    <linearGradient id="g" x1="0" y1="0" x2="1" y2="1">
      <stop offset="0" stop-color="#0A0D14"/>
      <stop offset="1" stop-color="#1a0a2e"/>
    </linearGradient>
  </defs>
  <rect width="1600" height="900" fill="url(#g)"/>
  <circle cx="346" cy="884" r="3.2" fill="#7000FF" opacity="0.5"/>
  <circle cx="1399" cy="142" r="2.5" fill="#00F0FF" opacity="0.5"/>
  <circle cx="104" cy="271" r="3.3" fill="#00F0FF" opacity="0.5"/>
  <circle cx="653" cy="433" r="5.0" fill="#00F0FF" opacity="0.5"/>
  <circle cx="129" cy="763" r="4.6" fill="#00F0FF" opacity="0.5"/>
  <circle cx="1144" cy="639" r="3.2" fill="#00F0FF" opacity="0.5"/>
  <circle cx="47" cy="600" r="4.3" fill="#7000FF" opacity="0.5"/>
  <circle cx="1240" cy="737" r="2.7" fill="#7000FF" opacity="0.5"/>
  <circle cx="868" cy="624" r="3.6" fill="#7000FF" opacity="0.5"/>
  <circle cx="1488" cy="603" r="1.2" fill="#7000FF" opacity="0.5"/>
  <circle cx="303" cy="521" r="1.0" fill="#00F0FF" opacity="0.5"/>
  <circle cx="1582" cy="864" r="4.2" fill="#7000FF" opacity="0.5"/>
  <circle cx="3" cy="69" r="1.3" fill="#7000FF" opacity="0.5"/>
  <circle cx="1141" cy="233" r="3.5" fill="#7000FF" opacity="0.5"/>
  <circle cx="836" cy="226" r="4.1" fill="#7000FF" opacity="0.5"/>
  <circle cx="206" cy="732" r="3.5" fill="#7000FF" opacity="0.5"/>
  <circle cx="792" cy="215" r="1.3" fill="#7000FF" opacity="0.5"/>
  <circle cx="962" cy="398" r="4.7" fill="#00F0FF" opacity="0.5"/>
  <circle cx="1588" cy="546" r="4.1" fill="#7000FF" opacity="0.5"/>
  <circle cx="515" cy="290" r="1.2" fill="#00F0FF" opacity="0.5"/>
  <circle cx="807" cy="826" r="3.8" fill="#7000FF" opacity="0.5"/>
  <circle cx="801" cy="891" r="4.2" fill="#00F0FF" opacity="0.5"/>
  <circle cx="366" cy="112" r="4.1" fill="#7000FF" opacity="0.5"/>
  <circle cx="1255" cy="186" r="4.5" fill="#00F0FF" opacity="0.5"/>
  <circle cx="202" cy="203" r="5.0" fill="#00F0FF" opacity="0.5"/>
  <circle cx="665" cy="778" r="2.3" fill="#00F0FF" opacity="0.5"/>
  <circle cx="1569" cy="387" r="1.2" fill="#00F0FF" opacity="0.5"/>
  <circle cx="1217" cy="67" r="1.3" fill="#7000FF" opacity="0.5"/>
  <circle cx="584" cy="330" r="2.7" fill="#7000FF" opacity="0.5"/>
  <circle cx="1069" cy="88" r="3.1" fill="#7000FF" opacity="0.5"/>
  <circle cx="923" cy="322" r="4.7" fill="#7000FF" opacity="0.5"/>
  <circle cx="532" cy="187" r="1.1" fill="#00F0FF" opacity="0.5"/>
  <circle cx="329" cy="550" r="4.6" fill="#7000FF" opacity="0.5"/>
  <circle cx="81" cy="8" r="2.8" fill="#00F0FF" opacity="0.5"/>
  <circle cx="1214" cy="538" r="2.3" fill="#7000FF" opacity="0.5"/>
  <circle cx="929" cy="58" r="2.9" fill="#00F0FF" opacity="0.5"/>
  <circle cx="226" cy="242" r="1.7" fill="#7000FF" opacity="0.5"/>
  <circle cx="175" cy="33" r="1.1" fill="#00F0FF" opacity="0.5"/>
  <circle cx="136" cy="244" r="3.7" fill="#00F0FF" opacity="0.5"/>
  <circle cx="1107" cy="151" r="1.2" fill="#7000FF" opacity="0.5"/>
  <text x="80" y="430" font-family="sans-serif" font-size="64" font-weight="700" fill="#00F0FF">Hugging Face</text>
  <text x="80" y="500" font-family="monospace" font-size="24" fill="#8B93A7">Hugging Face: Open-source Models Closing The Gap With Close…</text>
  <text x="80" y="840" font-family="monospace" font-size="18" fill="#8B93A7">Kifayat AI Matrix · #1614d54e</text>
</svg>